<svg width="253" height="249" viewBox="0 0 253 249" fill="none" xmlns="http://www.w3.org/2000/svg">
<path d="M67.5 117C63.5361 119.297 60.5 120.5 53.5 120.5C56.6667 135 63.3 165.6 64.5 172C65.7 178.4 72 185 75 187.5C70.2 192.7 69.3333 200.333 69.5 203.5C69.9 221.9 85.3333 227.833 93 228.5C92.3333 229.333 91.2 232.2 92 237C93 243 98 248 104.5 248C111 248 115 244 117 239C118.6 235 116.333 230.333 115 228.5H169.5C166.5 232 167 234.5 168 239C169 243.5 175 249 182 248C189 247 192.5 242 193.5 237C194.3 233 191.833 229.667 190.5 228.5H206.515C207.169 228.5 207.827 228.437 208.433 228.191C210.534 227.339 213.5 225.133 213.5 221C213.5 216.642 209.652 214.702 207.198 214.132C206.737 214.025 206.263 214 205.789 214H93.5261C92.5146 214 91.4955 213.872 90.5862 213.429C87.7978 212.07 84 208.901 84 203.5C84 198.45 87.735 195.144 90.7847 193.482C92.1953 192.714 93.8068 192.518 95.4128 192.551C127.063 193.202 188.364 193.839 198.5 191.5C208.448 189.204 214.615 179.71 216.736 174.659C216.92 174.221 217.052 173.767 217.156 173.303L226.5 131.5C227.333 128.167 227.4 121.3 221 120.5C214.6 119.7 212.333 125.167 212 128C209.5 140.667 204.2 166.9 203 170.5C202.146 173.063 199.383 175.102 197.02 176.364C195.404 177.228 193.576 177.519 191.744 177.555C158.05 178.216 94.2258 179.056 88 177.5C81.6 175.9 79 171.167 78.5 169L67.5 117Z" fill="#F25E6A" stroke="#F25E6A"/>
<path d="M3.29113 13.7536C-0.308867 10.1536 1.12447 5.92031 2.29113 4.25365C4.72258 1.51827 7.69287 0.919039 9.71052 1.00832C10.776 1.05548 11.7563 1.50936 12.6878 2.02886C24.2308 8.46658 45.0232 20.7981 45.7911 24.2536C46.7911 28.7536 31.7911 51.2536 34.7911 42.2536C37.1911 35.0536 32.1245 29.9203 29.2911 28.2536C22.1245 24.9203 6.89113 17.3536 3.29113 13.7536Z" fill="#F15E6A" stroke="#F15E6A"/>
<path d="M57 30H91L74 87H29L57 30Z" fill="#FFCDD1"/>
<path d="M91 30H123.5L119 87H74L91 30Z" fill="#FF99A2"/>
<path d="M123.5 30H158L163 87H119L123.5 30Z" fill="#FFCDD1"/>
<path d="M158 30H191L207 87H163L158 30Z" fill="#FF99A2"/>
<path d="M191 30H225L252.5 87H207L191 30Z" fill="#FFCDD1"/>
<path d="M74 87C74 92.9674 71.6295 98.1903 67.4099 102.41C63.1903 106.629 57.4674 109 51.5 109C45.5326 109 39.8097 106.629 35.5901 102.41C31.3705 98.1903 29 92.9674 29 87H51.5H74Z" fill="#EF6C77"/>
<path d="M119 87C119 92.9674 116.629 98.1903 112.41 102.41C108.19 106.629 102.467 109 96.5 109C90.5326 109 84.8097 106.629 80.5901 102.41C76.3705 98.1903 74 92.9674 74 87H96.5H119Z" fill="#EF6C77"/>
<path d="M163 87C163 92.9674 161.629 98.1903 157.41 102.41C153.19 106.629 147.467 109 141.5 109C135.533 109 129.81 106.629 125.59 102.41C121.371 98.1903 119 92.9674 119 87H141.5H163Z" fill="#EF6C77"/>
<path d="M207 87C207 92.9674 204.735 98.1903 200.703 102.41C196.671 106.629 191.202 109 185.5 109C179.798 109 174.329 106.629 170.297 102.41C166.265 98.1903 163 92.9674 163 87H185.5H207Z" fill="#EF6C77"/>
<path d="M252.5 87C252.5 92.9674 250.577 98.1903 246.263 102.41C241.95 106.629 236.1 109 230 109C223.9 109 218.05 106.629 213.737 102.41C209.423 98.1903 207 92.9674 207 87H230H252.5Z" fill="#EF6C77"/>
</svg>
